<svg width="40" height="40" viewBox="0 0 40 40" fill="none" xmlns="http://www.w3.org/2000/svg">
<rect width="40" height="40" rx="20" fill="#E1ECFC"/>
<path d="M11.1876 19.6183H27.8134C28.5337 19.6183 29.1197 19.0323 29.1197 18.312V15.1452C29.1197 14.4249 28.5337 13.8389 27.8134 13.8389H11.1876C10.4672 13.8389 9.88124 14.4249 9.88124 15.1452V18.312C9.88124 19.0323 10.4672 19.6183 11.1876 19.6183ZM10.9105 15.1452C10.9105 14.9924 11.0353 14.8681 11.1876 14.8681H27.8134C27.9657 14.8681 28.0905 14.9924 28.0905 15.1452V18.312C28.0905 18.4648 27.9657 18.5891 27.8134 18.5891H11.1876C11.0353 18.5891 10.9105 18.4648 10.9105 18.312V15.1452Z" fill="#191737" stroke="#191737" stroke-width="0.237512"/>
<path d="M13.5629 29.1188H25.4385C26.5958 29.1188 27.5365 28.1773 27.5365 27.0208V19.1037C27.5365 18.8196 27.306 18.5891 27.0219 18.5891C26.7378 18.5891 26.5073 18.8196 26.5073 19.1037V27.0208C26.5073 27.6099 26.0276 28.0896 25.4385 28.0896H13.5629C12.9737 28.0896 12.4941 27.6099 12.4941 27.0208V19.1037C12.4941 18.8196 12.2636 18.5891 11.9795 18.5891C11.6954 18.5891 11.4649 18.8196 11.4649 19.1037V27.0208C11.4649 28.1773 12.4055 29.1188 13.5629 29.1188Z" fill="#191737" stroke="#191737" stroke-width="0.237512"/>
<path d="M18.9857 28.6042C18.9857 28.8883 19.2162 29.1188 19.5003 29.1188C19.7844 29.1188 20.0149 28.8883 20.0149 28.6042V19.1037C20.0149 18.8196 19.7844 18.5891 19.5003 18.5891C19.2162 18.5891 18.9857 18.8196 18.9857 19.1037V28.6042Z" fill="#191737" stroke="#191737" stroke-width="0.237512"/>
<path d="M18.6084 10.495C17.7909 9.67663 16.4601 9.67671 15.6418 10.495C15.2459 10.8909 15.0275 11.4183 15.0275 11.9787C15.0275 12.5389 15.2458 13.0664 15.6427 13.4617C15.8256 13.6445 16.1252 13.8132 16.4658 13.9647C16.8096 14.1175 17.2078 14.2582 17.5983 14.3806C18.3795 14.6255 19.1387 14.8004 19.3894 14.8561C19.4261 14.8642 19.4633 14.8684 19.5007 14.8684C19.6354 14.8684 19.7671 14.8151 19.8641 14.7172C19.9887 14.5934 20.041 14.4143 20.0029 14.2426L20.0029 14.2426C19.9472 13.9915 19.7724 13.2318 19.5275 12.4504C19.405 12.0598 19.2644 11.6616 19.1115 11.3178C18.9601 10.9773 18.7914 10.6777 18.6084 10.495ZM18.6084 10.495C18.6084 10.4949 18.6084 10.4949 18.6084 10.4949L18.5245 10.5789L18.6085 10.495C18.6085 10.495 18.6085 10.495 18.6084 10.495ZM17.8805 11.2231L17.8808 11.2234C17.9425 11.2852 18.0191 11.4076 18.1048 11.5868C18.1889 11.7627 18.2768 11.9822 18.3645 12.2281C18.5189 12.6608 18.6709 13.1694 18.7994 13.6535C18.3155 13.5252 17.8069 13.3733 17.3742 13.2188C17.1283 13.131 16.9088 13.0431 16.7329 12.9589C16.5538 12.8731 16.4314 12.7965 16.3696 12.7348C16.1677 12.5321 16.0567 12.2646 16.0567 11.9787C16.0567 11.6927 16.1677 11.4252 16.3697 11.2225L16.2855 11.1387L16.3695 11.2226C16.5774 11.0148 16.8515 10.9107 17.1255 10.9107C17.3996 10.9107 17.6736 11.0148 17.8805 11.2231Z" fill="#191737" stroke="#191737" stroke-width="0.237512"/>
<path d="M19.1366 14.7179L19.1361 14.7175C19.0119 14.5932 18.9591 14.4142 18.9973 14.2428C19.053 13.9917 19.2278 13.2323 19.4728 12.451C19.5952 12.0604 19.7358 11.6622 19.8887 11.3184C20.0401 10.9778 20.2089 10.6781 20.3917 10.4952L19.1366 14.7179ZM19.1366 14.7179C19.2341 14.8144 19.3654 14.8678 19.5004 14.8678C19.5377 14.8678 19.5737 14.8637 19.6087 14.8571L19.6088 14.8571M19.1366 14.7179L19.6088 14.8571M19.6088 14.8571L19.6124 14.8563M19.6088 14.8571L19.6124 14.8563M19.6124 14.8563C19.8631 14.8006 20.6223 14.6258 21.4035 14.3809C21.794 14.2584 22.1922 14.1178 22.536 13.9649C22.8766 13.8135 23.1763 13.6447 23.3592 13.4618C23.7552 13.0659 23.9735 12.5384 23.9735 11.9781C23.9735 11.4179 23.7552 10.8905 23.3584 10.4952M19.6124 14.8563L23.3584 10.4952M23.3584 10.4952C22.541 9.67781 21.2102 9.67602 20.3918 10.4952H23.3584ZM22.6309 12.7332L22.6307 12.7334C22.5689 12.7951 22.4465 12.8717 22.2673 12.9575C22.0914 13.0417 21.8719 13.1297 21.6261 13.2174C21.1933 13.3719 20.6848 13.5238 20.2008 13.6521C20.3293 13.1681 20.4813 12.6595 20.6357 12.2267C20.7234 11.9809 20.8113 11.7614 20.8954 11.5855C20.9812 11.4062 21.0577 11.2839 21.1195 11.2221C21.3273 11.0143 21.6014 10.9101 21.8755 10.9101C22.1495 10.9101 22.4236 11.0142 22.6314 11.222C22.8334 11.4247 22.9443 11.6922 22.9443 11.9781C22.9443 12.2641 22.8333 12.5315 22.6309 12.7332Z" fill="#191737" stroke="#191737" stroke-width="0.237512"/>
</svg>
