<svg width="40" height="40" viewBox="0 0 40 40" fill="none" xmlns="http://www.w3.org/2000/svg">
<rect width="40" height="40" rx="20" fill="#E1ECFC"/>
<path fill-rule="evenodd" clip-rule="evenodd" d="M20.0361 10H19.9648C16.5956 10 13.5065 12.4446 13.2068 15.681C13.1869 15.9125 13.1732 16.1491 13.1644 16.4039L13.1521 16.9997L13.1497 17.534L13.1647 17.4731C13.0257 18.151 12.7052 18.7799 12.2365 19.2938L12.1694 19.3802C11.768 19.9898 11.5374 20.6955 11.5017 21.4242L11.5009 21.6624C11.4804 22.6208 11.8088 23.5691 12.4266 24.3223C13.2644 25.2069 14.349 25.7346 15.513 25.8466C18.49 26.1699 21.502 26.1699 24.4873 25.8457C25.6434 25.7393 26.7311 25.2101 27.5338 24.3582C28.1399 23.6331 28.4707 22.763 28.499 21.862L28.5 21.4587C28.4668 20.698 28.2348 19.9917 27.8286 19.3847L27.7669 19.3055L27.6162 19.1282C27.2776 18.7052 27.0303 18.218 26.8896 17.6969L26.845 17.5098L26.8358 17.3135C26.833 17.2253 26.8317 17.1274 26.8312 17.0052L26.8311 16.3321C26.8288 16.0746 26.8212 15.8915 26.8034 15.6854C26.4935 12.4429 23.4034 10 20.0361 10ZM19.9648 11.3953H20.0361C22.7336 11.3953 25.1944 13.3407 25.4307 15.8133C25.4447 15.9756 25.4509 16.1304 25.4528 16.3605L25.4555 17.2651C25.4585 17.4098 25.4642 17.5301 25.4739 17.6655L25.4868 17.7582L25.5517 18.034C25.744 18.7635 26.0893 19.4441 26.5647 20.0308L26.7026 20.1926L26.6873 20.1672C26.951 20.5612 27.1012 21.0186 27.1222 21.4901L27.1215 21.6536C27.1375 22.3096 26.9199 22.933 26.5084 23.4267C25.9645 24.002 25.1871 24.3802 24.3513 24.4572C21.4527 24.7719 18.5393 24.7719 15.6517 24.4583C14.8068 24.377 14.0288 23.9985 13.4537 23.3931C13.0809 22.9356 12.8657 22.3142 12.8792 21.6774L12.8793 21.4587L12.8968 21.2682C12.9389 20.9495 13.0454 20.6265 13.2104 20.3291L13.2941 20.1905C13.9078 19.5004 14.3289 18.6611 14.5144 17.7567L14.5288 17.6149L14.5353 16.6956L14.5514 16.2292C14.5586 16.0821 14.568 15.9423 14.5797 15.8068C14.808 13.3409 17.2665 11.3953 19.9648 11.3953ZM13.2941 20.1905C13.2793 20.2072 13.2643 20.2238 13.2493 20.2404L13.2985 20.1832L13.2941 20.1905ZM22.6079 27.6906C22.3114 27.4491 21.8775 27.4967 21.6389 27.7969C21.5355 27.927 21.4158 28.0437 21.2825 28.1443C20.8307 28.4986 20.2669 28.6564 19.7064 28.5896C19.1467 28.523 18.6379 28.2381 18.2927 27.7995C18.0555 27.4981 17.6219 27.4484 17.3242 27.6885C17.0264 27.9286 16.9774 28.3676 17.2146 28.6689C17.787 29.3962 18.6258 29.8659 19.5453 29.9754C20.464 30.0849 21.3891 29.826 22.1167 29.255C22.3327 29.0922 22.5365 28.8935 22.7129 28.6715C22.9515 28.3713 22.9045 27.9321 22.6079 27.6906Z" fill="#191737"/>
</svg>
